HIERARCHY
ROOT pelvis
{
  OFFSET 0 100 0
  CHANNELS 6 Xposition Yposition Zposition Zrotation Xrotation Yrotation
  JOINT pelvis_right_femur
  {
    OFFSET -10.78128 -3.44521 -0.5502486
    CHANNELS 3 Zrotation Xrotation Yrotation
    JOINT right_femur_tibia
    {
      OFFSET -0.8047443 -44.0398 -0.1307829
      CHANNELS 3 Zrotation Xrotation Yrotation
      JOINT right_tibia_foot
      {
        OFFSET 3.006224 -47.83518 -5
        CHANNELS 3 Zrotation Xrotation Yrotation
        End Site
        {
          OFFSET 0 -5 15
        }
      }
    }
  }
  JOINT pelvis_left_femur
  {
    OFFSET 10.78128 -3.44521 -0.5502486
    CHANNELS 3 Zrotation Xrotation Yrotation
    JOINT left_femur_tibia
    {
      OFFSET 0.8047443 -44.0398 -0.1307829
      CHANNELS 3 Zrotation Xrotation Yrotation
      JOINT left_tibia_foot
      {
        OFFSET -4.370144 -48.10324 -4.275266
        CHANNELS 3 Zrotation Xrotation Yrotation
        End Site
        {
          OFFSET 0 -5 15
        }
      }
    }
  }
  JOINT pelvis_spine1
  {
    OFFSET 0 6.468898 -3.129235
    CHANNELS 3 Zrotation Xrotation Yrotation
    JOINT spine1
    {
      OFFSET 0 23.15396 4.99043
      CHANNELS 3 Zrotation Xrotation Yrotation
      JOINT spine2
      {
        OFFSET 0 20.79997 -5.064912
        CHANNELS 3 Zrotation Xrotation Yrotation
        JOINT neck
        {
          OFFSET 0 14.38658 9.616178
          CHANNELS 3 Zrotation Xrotation Yrotation
          End Site
          {
            OFFSET 0 20 0
          }
        }
      }
      JOINT right_manubrium
      {
        OFFSET -5.722621 16.35077 3.967754
        CHANNELS 3 Zrotation Xrotation Yrotation
        JOINT right_clavicle
        {
          OFFSET -13.16364 1.694482 -4.693211
          CHANNELS 3 Zrotation Xrotation Yrotation
          JOINT right_humerus
          {
            OFFSET -28.5034 -0.3100689 -2.792744
            CHANNELS 3 Zrotation Xrotation Yrotation
            JOINT right_radius
            {
              OFFSET -25.15693 0.02248979 -1.271978
              CHANNELS 3 Zrotation Xrotation Yrotation
              End Site
              {
                OFFSET -15 0 0
              }
            }
          }
        }
      }
      JOINT left_manubrium
      {
        OFFSET 5.722621 16.35077 3.967754
        CHANNELS 3 Zrotation Xrotation Yrotation
        JOINT left_clavicle
        {
          OFFSET 13.16364 1.694482 -4.693211
          CHANNELS 3 Zrotation Xrotation Yrotation
          JOINT left_humerus
          {
            OFFSET 29.39168 -1.063119 -2.237045
            CHANNELS 3 Zrotation Xrotation Yrotation
            JOINT left_radius
            {
              OFFSET 24.59957 -0.9528479 0.9047498
              CHANNELS 3 Zrotation Xrotation Yrotation
              End Site
              {
                OFFSET 15 -0 -0
              }
            }
          }
        }
      }
    }
  }
}
MOTION
Frames: 9
Frame Time: 0.0416666666667
27.95464 100.8793 265.4656 -0.3109587 -2.090765 1.180859 2.935996 11.66639 6.066074 -0 33.286 -0 0.9706569 -11.49564 -1.72296 -0.001568227 -27.74648 -4.083123 -0 24.81943 -0 -6.706899 -7.907695 18.29887 1.144146 -4.997235 9.298938 -2.227456 12.8249 -2.89756 2.094843 19.07218 3.310662 0.7889456 -14.92733 5.01408 1.207239 -24.81609 11.66698 80.6692 16.3516 -4.720705 -0 0 28.63255 -23.2337 8.538204 11.83154 1.727596 -16.58396 -2.287277 -90.43735 21.09685 26.57695 0 0 -13.38413 -3.817525 4.314432 18.81092
29.2911 101.6979 272.827 -0.2781703 -1.939094 1.739242 3.325288 7.451556 5.82256 -0 41.03281 -0 0.685163 -11.08057 -1.708232 -1.177261 -24.10847 -5.024317 -0 25.38426 -0 -6.168278 -9.368638 17.78531 0.8357509 -6.322642 8.840661 -1.978653 12.89333 -3.045064 2.213067 19.56638 3.276852 0.6422708 -15.19989 5.240655 1.911921 -23.5626 11.37471 81.50504 16.04521 -6.219369 -0 0 27.34778 -22.75446 8.440298 11.23342 1.730981 -16.34925 -2.2648 -90.0529 21.45158 25.82946 0 0 -13.1739 -3.824138 4.122858 18.97817
30.617 102.6017 279.3412 -0.2385975 -1.738311 2.473593 2.725204 3.46918 5.281669 -0 48.91593 -0 0.5560339 -9.658074 -3.381554 -2.101177 -19.87458 -5.725875 -0 24.9822 -0 -5.515894 -11.39382 17.17609 0.6268702 -7.070325 7.944902 -1.695004 12.69214 -3.454356 2.19189 20.0238 3.348078 0.4261264 -15.43603 5.492614 2.729907 -22.56516 11.34531 82.27686 15.98842 -7.69459 -0 0 25.57044 -22.07099 8.436177 10.45725 1.707832 -16.77844 -2.536103 -89.19478 21.88129 23.98355 0 0 -13.61487 -3.641275 3.993252 18.83075
31.73672 103.6883 285.3997 -0.2069514 -1.563872 3.109662 2.734754 -2.082689 4.551982 -0 53.30756 -0 0.6256149 -8.839436 -5.17527 -2.636741 -15.375 -6.252208 -0 23.73794 -0 -5.096529 -13.12969 16.52892 0.3470315 -7.66179 6.914587 -1.286363 12.67969 -3.986818 2.152117 20.50304 3.495526 0.2154789 -15.62079 5.818524 3.48648 -21.63584 11.30919 83.16068 16.0789 -9.30353 -0 0 23.62178 -21.25976 8.45234 9.604863 1.798407 -16.92431 -2.852889 -88.17029 22.33581 22.00155 0 0 -13.94224 -3.422431 3.810959 18.61149
32.86769 105.0993 291.6299 -0.1692509 -1.339049 3.932137 2.393273 -10.15059 4.577481 -0 54.36248 -0 0.1322279 -9.477165 -6.742044 -3.076211 -10.8602 -6.824201 -0 21.83439 -0 -4.971702 -14.36476 15.79549 -0.01850256 -8.555801 5.611055 -0.6715947 12.57364 -5.002687 2.099468 21.14284 3.697583 0.0129996 -15.74777 6.204545 3.979291 -20.42787 10.96368 84.13555 16.14249 -11.36112 -0 0 21.5956 -20.40059 8.412212 8.696809 1.980264 -17.35735 -3.341088 -86.94775 22.7855 19.34186 0 0 -14.72297 -3.114864 3.666253 18.12449
34.03956 106.0193 297.3369 -0.09348917 -0.8369616 5.767941 2.665898 -17.09901 4.631086 -0 51.27864 -0 -0.2341542 -9.411551 -7.981984 -3.439462 -5.869953 -7.143319 -0 18.95022 -0 -4.967476 -15.60445 14.6952 -0.4160475 -9.082549 4.141296 0.005470742 12.31686 -6.475424 2.134451 21.56896 3.8711 -0.1265514 -15.88759 6.603043 3.84496 -19.17646 10.41123 84.88316 16.13935 -13.54589 -0 0 19.71449 -19.56921 8.277464 7.812618 2.376159 -17.8821 -4.052079 -85.6686 23.21529 16.22389 0 0 -15.85625 -2.78668 3.553263 17.403
34.93185 105.9876 302.7816 -0.03619507 -0.3688018 7.476473 1.999887 -21.70245 4.314313 -0 45.27286 -0 -0.1035872 -8.104079 -9.381698 -3.433548 -1.695716 -7.347247 -0 16.54241 -0 -4.974556 -17.0532 13.55084 -1.071768 -9.210665 3.037655 0.7810551 11.80898 -7.862147 2.336977 21.60812 3.906447 -0.1635033 -16.09517 6.93264 3.414377 -17.96816 9.865231 85.49523 16.08502 -15.64466 -0 0 17.92017 -18.74817 8.057384 6.890893 3.157693 -18.41766 -4.865759 -84.31609 23.66526 12.93698 0 0 -17.11404 -2.454272 3.442305 16.59387
35.76598 105.3851 308.2663 0.006899383 0.08102774 9.118359 1.125097 -26.28729 4.031215 -0 36.51025 -0 -0.3251258 -7.135555 -10.41289 -3.322292 2.100628 -7.42207 -0 14.99128 -0 -5.007748 -18.72844 12.49987 -1.565556 -9.176792 2.202863 1.573973 11.18898 -8.978634 2.505126 21.56573 3.879205 -0.209013 -16.38218 7.145695 2.954147 -16.77031 9.34059 85.93218 15.99843 -17.68425 -0 0 15.98529 -17.90567 7.775183 5.847814 4.127184 -19.20559 -5.423106 -82.67839 24.03212 9.4139 0 0 -18.63661 -2.033309 3.427499 15.69878
36.60705 104.1149 314.0277 0.02951581 0.3845167 10.2275 0.4098299 -30.16705 3.773751 -0 26.54085 -0 -0.9116925 -6.513935 -11.32347 -3.149281 5.594504 -7.551827 -0 14.68023 -0 -5.138425 -20.43399 11.62852 -1.788377 -9.246378 1.82999 2.089266 10.6711 -9.52465 2.725684 21.49669 3.759758 -0.2171394 -16.77218 7.270046 2.529131 -15.50476 8.941526 86.25627 15.93178 -19.64355 -0 0 13.82985 -17.01292 7.500525 4.653752 4.87571 -20.02423 -5.558532 -81.06201 24.18366 6.173038 0 0 -20.21926 -1.526575 3.516971 14.71669
